<?xml version="1.0" encoding="utf-8"?>
<!-- Generator: Adobe Illustrator 17.0.0, SVG Export Plug-In . SVG Version: 6.00 Build 0)  -->
<!DOCTYPE svg PUBLIC "-//W3C//DTD SVG 1.1//EN" "http://www.w3.org/Graphics/SVG/1.1/DTD/svg11.dtd">
<svg version="1.1" id="Layer_1" xmlns="http://www.w3.org/2000/svg" xmlns:xlink="http://www.w3.org/1999/xlink" x="0px" y="0px"
	 width="27.89px" height="18.018px" viewBox="0 0 27.89 18.018" enable-background="new 0 0 27.89 18.018" xml:space="preserve">
<g>
	<g>
		<path fill="#333333" d="M11.535,13.123H4.09l-1.673,4.651H0L6.787,0h2.051l6.799,17.774h-2.404L11.535,13.123z M4.797,11.206
			h6.043L7.813,2.893L4.797,11.206z"/>
	</g>
</g>
<g>
	<g>
		<path fill="#333333" d="M25.521,17.774c-0.13-0.261-0.236-0.725-0.317-1.392c-1.05,1.091-2.303,1.636-3.76,1.636
			c-1.302,0-2.37-0.368-3.204-1.104c-0.835-0.736-1.252-1.671-1.252-2.802c0-1.375,0.523-2.444,1.569-3.205
			c1.045-0.761,2.517-1.142,4.413-1.142h2.197V8.728c0-0.789-0.236-1.418-0.709-1.886c-0.472-0.468-1.167-0.702-2.087-0.702
			c-0.806,0-1.481,0.204-2.026,0.61c-0.545,0.407-0.818,0.899-0.818,1.477h-2.27c0-0.659,0.233-1.296,0.701-1.91
			c0.468-0.615,1.103-1.101,1.904-1.459c0.802-0.358,1.683-0.537,2.643-0.537c1.522,0,2.715,0.38,3.577,1.142
			c0.862,0.761,1.311,1.809,1.343,3.143v6.08c0,1.212,0.154,2.177,0.464,2.893v0.195H25.521z M21.773,16.053
			c0.709,0,1.38-0.184,2.015-0.55s1.095-0.843,1.38-1.429v-2.709h-1.771c-2.767,0-4.15,0.81-4.15,2.429
			c0,0.708,0.236,1.262,0.708,1.661S21.033,16.053,21.773,16.053z"/>
	</g>
</g>
</svg>
