<svg xmlns="http://www.w3.org/2000/svg" width="81.543" height="19.375" viewBox="0 0 81.543 19.375">
  <path id="Orion_original" data-name="Orion original" d="M10.555-17.761a9.1,9.1,0,0,1,6.727,2.853A9.4,9.4,0,0,1,20.087-8.08a9.35,9.35,0,0,1-2.826,6.869,9.35,9.35,0,0,1-6.869,2.826A9.341,9.341,0,0,1,3.538-1.225,9.341,9.341,0,0,1,.7-8.08a9.266,9.266,0,0,1,2.86-6.869A9.6,9.6,0,0,1,10.555-17.761Zm-.162,5.435a3.839,3.839,0,0,0-2.88,1.244,4.186,4.186,0,0,0-1.19,3,4.173,4.173,0,0,0,1.2,3,3.845,3.845,0,0,0,2.873,1.244,3.842,3.842,0,0,0,2.887-1.237A4.192,4.192,0,0,0,14.462-8.08a4.192,4.192,0,0,0-1.183-3.008A3.842,3.842,0,0,0,10.393-12.325Zm17.766-.014V1.155H22.669V-17.3h7.044a7.2,7.2,0,0,1,4.989,1.6,5.839,5.839,0,0,1,1.974,4.529A5.8,5.8,0,0,1,34.23-6.457l3.164,7.612h-5.76L28.97-4.794V-9.54H29.4q1.731,0,1.731-1.487,0-1.312-2-1.312ZM44.722-17.3V1.155H39.232V-17.3Zm12.439-.46a9.1,9.1,0,0,1,6.727,2.853A9.4,9.4,0,0,1,66.693-8.08a9.35,9.35,0,0,1-2.826,6.869A9.35,9.35,0,0,1,57,1.614a9.341,9.341,0,0,1-6.855-2.839A9.341,9.341,0,0,1,47.3-8.08a9.266,9.266,0,0,1,2.86-6.869A9.6,9.6,0,0,1,57.161-17.761ZM57-12.325a3.839,3.839,0,0,0-2.88,1.244,4.186,4.186,0,0,0-1.19,3,4.173,4.173,0,0,0,1.2,3A3.845,3.845,0,0,0,57-3.834a3.842,3.842,0,0,0,2.887-1.237A4.192,4.192,0,0,0,61.068-8.08a4.192,4.192,0,0,0-1.183-3.008A3.842,3.842,0,0,0,57-12.325ZM68.9,1.155V-10.825a6.83,6.83,0,0,1,1.886-5.043,6.775,6.775,0,0,1,5.023-1.893,6.1,6.1,0,0,1,4.78,1.839,7.64,7.64,0,0,1,1.656,5.287V1.155H76.752v-11.79q0-1.69-1.2-1.69-1.163,0-1.163,1.69V1.155Z" transform="translate(-0.698 17.761)" fill="#fff"/>
</svg>
