<svg id="multiple_stop-24px" xmlns="http://www.w3.org/2000/svg" width="89" height="89" viewBox="0 0 89 89">
  <rect id="Rectangle_1" data-name="Rectangle 1" width="89" height="89" fill="none"/>
  <path id="Path_7" data-name="Path 7" d="M55.187,4,70.1,18.91l-14.91,14.91V22.638H40.276V15.183h14.91ZM29.093,15.183a3.728,3.728,0,1,0,3.728,3.728A3.739,3.739,0,0,0,29.093,15.183Zm-14.91,0A3.728,3.728,0,1,0,17.91,18.91,3.739,3.739,0,0,0,14.183,15.183ZM17.91,52.459h14.91V45H17.91V33.821L3,48.731l14.91,14.91Zm26.093,0a3.728,3.728,0,1,0-3.728-3.728A3.739,3.739,0,0,0,44,52.459Zm14.91,0a3.728,3.728,0,1,0-3.728-3.728A3.739,3.739,0,0,0,58.914,52.459Z" transform="translate(8.183 10.91)"/>
  <path id="Path_10" data-name="Path 10" d="M17.91,43.971h14.91V36.516H17.91V25.333L3,40.244l14.91,14.91Zm26.093,0a3.728,3.728,0,1,0-3.728-3.728A3.739,3.739,0,0,0,44,43.971Zm14.91,0a3.739,3.739,0,0,0,3.728-3.728,3.9,3.9,0,0,0-2.154-3.377,3.242,3.242,0,0,0-1.573-.35,3.728,3.728,0,0,0,0,7.455Z" transform="translate(8.183 19.398)" fill="#6b6b6b"/>
  <path id="Path_8" data-name="Path 8" d="M17.91,43.971h14.91V36.516H17.91V25.333L3,40.244l14.91,14.91Zm26.093,0a3.728,3.728,0,1,0-3.728-3.728A3.739,3.739,0,0,0,44,43.971Zm14.91,0a3.739,3.739,0,0,0,3.728-3.728,3.9,3.9,0,0,0-2.154-3.377,3.242,3.242,0,0,0-1.573-.35,3.728,3.728,0,0,0,0,7.455Z" transform="translate(9.581 16.602)"/>
  <path id="Path_9" data-name="Path 9" d="M53.065,4l14.91,14.91-14.91,14.91V22.638H38.154V15.183h14.91ZM26.971,15.183A3.728,3.728,0,1,0,30.7,18.91,3.739,3.739,0,0,0,26.971,15.183Zm-14.91,0a3.728,3.728,0,1,0,3.728,3.728A3.739,3.739,0,0,0,12.061,15.183Z" transform="translate(14.498 8.115)" fill="#7144ff"/>
</svg>
