<svg xmlns="http://www.w3.org/2000/svg" xmlns:xlink="http://www.w3.org/1999/xlink" width="105" height="105" viewBox="0 0 105 105">
  <defs>
    <clipPath id="clip-Custom_Size_1">
      <rect width="105" height="105"/>
    </clipPath>
  </defs>
  <g id="Custom_Size_1" data-name="Custom Size – 1" clip-path="url(#clip-Custom_Size_1)">
    <g id="tab_unselected-24px" transform="translate(1 0.74)">
      <path id="Path_801" data-name="Path 801" d="M0,0H104.26V104.26H0Z" fill="none"/>
      <path id="Path_802" data-name="Path 802" d="M1,29.065H9.688V20.377H1ZM1,46.442H9.688V37.753H1ZM1,11.688H9.688V3A8.714,8.714,0,0,0,1,11.688ZM35.753,81.195h8.688V72.507H35.753ZM1,63.818H9.688V55.13H1ZM9.688,81.195V72.507H1A8.714,8.714,0,0,0,9.688,81.195ZM87.883,3H53.13V29.065H96.571V11.688A8.714,8.714,0,0,0,87.883,3Zm0,60.818h8.688V55.13H87.883Zm-52.13-52.13h8.688V3H35.753ZM18.377,81.195h8.688V72.507H18.377Zm0-69.507h8.688V3H18.377ZM87.883,81.195a8.714,8.714,0,0,0,8.688-8.688H87.883Zm0-34.753h8.688V37.753H87.883ZM53.13,81.195h8.688V72.507H53.13Zm17.377,0h8.688V72.507H70.507Z" transform="translate(3.344 10.032)"/>
      <path id="Path_803" data-name="Path 803" d="M1,29.065H9.688V20.377H1ZM1,46.442H9.688V37.753H1ZM1,11.688H9.688V3A8.714,8.714,0,0,0,1,11.688ZM35.753,81.195h8.688V72.507H35.753ZM1,63.818H9.688V55.13H1ZM9.688,81.195V72.507H1A8.714,8.714,0,0,0,9.688,81.195ZM87.883,63.818h8.688V55.13H87.883Zm-52.13-52.13h8.688V3H35.753ZM18.377,81.195h8.688V72.507H18.377Zm0-69.507h8.688V3H18.377ZM87.883,81.195a8.714,8.714,0,0,0,8.688-8.688H87.883Zm0-34.753h8.688V37.753H87.883ZM53.13,81.195h8.688V72.507H53.13Zm17.377,0h8.688V72.507H70.507Z" transform="translate(3.344 10.032)" fill="#8561c5"/>
    </g>
  </g>
</svg>
